<?xml version="1.0" encoding="UTF-8" standalone="no"?>
<!-- Created with Inkscape (http://www.inkscape.org/) -->

<svg
   xmlns:dc="http://purl.org/dc/elements/1.1/"
   xmlns:cc="http://creativecommons.org/ns#"
   xmlns:rdf="http://www.w3.org/1999/02/22-rdf-syntax-ns#"
   xmlns:svg="http://www.w3.org/2000/svg"
   xmlns="http://www.w3.org/2000/svg"
   xmlns:sodipodi="http://sodipodi.sourceforge.net/DTD/sodipodi-0.dtd"
   xmlns:inkscape="http://www.inkscape.org/namespaces/inkscape"
   width="16px"
   height="16px"
   viewBox="0 0 16 16"
   version="1.1"
   id="SVGRoot"
   inkscape:version="0.92.5 (2060ec1f9f, 2020-04-08)"
   sodipodi:docname="favicon.svg">
  <defs
     id="defs3729" />
  <sodipodi:namedview
     id="base"
     pagecolor="#ffffff"
     bordercolor="#666666"
     borderopacity="1.0"
     inkscape:pageopacity="0.0"
     inkscape:pageshadow="2"
     inkscape:zoom="16"
     inkscape:cx="7.188253"
     inkscape:cy="9.1875"
     inkscape:document-units="px"
     inkscape:current-layer="layer1"
     showgrid="false"
     inkscape:window-width="2488"
     inkscape:window-height="1369"
     inkscape:window-x="72"
     inkscape:window-y="34"
     inkscape:window-maximized="1"
     inkscape:grid-bbox="true" />
  <metadata
     id="metadata3732">
    <rdf:RDF>
      <cc:Work
         rdf:about="">
        <dc:format>image/svg+xml</dc:format>
        <dc:type
           rdf:resource="http://purl.org/dc/dcmitype/StillImage" />
        <dc:title></dc:title>
      </cc:Work>
    </rdf:RDF>
  </metadata>
  <g
     inkscape:label="Layer 1"
     inkscape:groupmode="layer"
     id="layer1">
    <path
       style="opacity:0;fill:#ff0000;fill-opacity:1;stroke-width:0.0625"
       d="M 2.588253,15.908136 C 2.2665226,15.856985 1.6710363,15.613931 1.3531109,15.404 0.7452302,15.002606 0.24721094,14.259059 0.09460986,13.525049 0.04762725,13.299062 0.02604649,11.541911 0.02667683,7.9937987 0.02767654,2.3665782 0.02719227,2.3755177 0.36739473,1.7041605 0.59071882,1.2634516 1.1484945,0.68921819 1.5700027,0.46606831 2.3401641,0.05833859 2.0673449,0.07492504 7.9902218,0.07574181 c 5.7568192,7.9387e-4 5.6649542,-0.0037857 6.3240242,0.31526435 0.416337,0.20154527 1.033671,0.80503764 1.262308,1.23400574 0.397173,0.7451732 0.386699,0.5721583 0.386699,6.3874881 0,4.547681 -0.01339,5.337628 -0.09581,5.654065 -0.290032,1.113508 -1.249889,2.011328 -2.368797,2.215698 -0.350537,0.06403 -10.5187489,0.08814 -10.910396,0.02587 z"
       id="path5327"
       inkscape:connector-curvature="0" />
    <path
       style="opacity:0;fill:#ff0000;fill-opacity:1;stroke-width:0.0625"
       d="M 2.588253,15.908136 C 2.2665226,15.856985 1.6710363,15.613931 1.3531109,15.404 0.7452302,15.002606 0.24721094,14.259059 0.09460986,13.525049 0.04762725,13.299062 0.02604649,11.541911 0.02667683,7.9937987 0.02767654,2.3665782 0.02719227,2.3755177 0.36739473,1.7041605 0.59071882,1.2634516 1.1484945,0.68921819 1.5700027,0.46606831 2.3401641,0.05833859 2.0673449,0.07492504 7.9902218,0.07574181 c 5.7568192,7.9387e-4 5.6649542,-0.0037857 6.3240242,0.31526435 0.416337,0.20154527 1.033671,0.80503764 1.262308,1.23400574 0.397173,0.7451732 0.386699,0.5721583 0.386699,6.3874881 0,4.547681 -0.01339,5.337628 -0.09581,5.654065 -0.290032,1.113508 -1.249889,2.011328 -2.368797,2.215698 -0.350537,0.06403 -10.5187489,0.08814 -10.910396,0.02587 z"
       id="path5329"
       inkscape:connector-curvature="0" />
    <path
       style="opacity:0;fill:#ff0000;fill-opacity:1;stroke-width:0.0625"
       d="M 2.588253,15.908136 C 2.2665226,15.856985 1.6710363,15.613931 1.3531109,15.404 0.7452302,15.002606 0.24721094,14.259059 0.09460986,13.525049 0.04762725,13.299062 0.02604649,11.541911 0.02667683,7.9937987 0.02767654,2.3665782 0.02719227,2.3755177 0.36739473,1.7041605 0.59071882,1.2634516 1.1484945,0.68921819 1.5700027,0.46606831 2.3401641,0.05833859 2.0673449,0.07492504 7.9902218,0.07574181 c 5.7568192,7.9387e-4 5.6649542,-0.0037857 6.3240242,0.31526435 0.416337,0.20154527 1.033671,0.80503764 1.262308,1.23400574 0.397173,0.7451732 0.386699,0.5721583 0.386699,6.3874881 0,4.547681 -0.01339,5.337628 -0.09581,5.654065 -0.290032,1.113508 -1.249889,2.011328 -2.368797,2.215698 -0.350537,0.06403 -10.5187489,0.08814 -10.910396,0.02587 z"
       id="path5331"
       inkscape:connector-curvature="0" />
    <path
       style="opacity:0;fill:#ff0000;fill-opacity:1;stroke-width:0.0625"
       d="M 2.588253,15.908136 C 2.2665226,15.856985 1.6710363,15.613931 1.3531109,15.404 0.7452302,15.002606 0.24721094,14.259059 0.09460986,13.525049 0.04762725,13.299062 0.02604649,11.541911 0.02667683,7.9937987 0.02767654,2.3665782 0.02719227,2.3755177 0.36739473,1.7041605 0.59071882,1.2634516 1.1484945,0.68921819 1.5700027,0.46606831 2.3401641,0.05833859 2.0673449,0.07492504 7.9902218,0.07574181 c 5.7568192,7.9387e-4 5.6649542,-0.0037857 6.3240242,0.31526435 0.416337,0.20154527 1.033671,0.80503764 1.262308,1.23400574 0.397173,0.7451732 0.386699,0.5721583 0.386699,6.3874881 0,4.547681 -0.01339,5.337628 -0.09581,5.654065 -0.290032,1.113508 -1.249889,2.011328 -2.368797,2.215698 -0.350537,0.06403 -10.5187489,0.08814 -10.910396,0.02587 z"
       id="path5333"
       inkscape:connector-curvature="0" />
    <path
       style="opacity:0;fill:#ff0000;fill-opacity:1;stroke-width:0.0625"
       d="M 2.588253,15.908136 C 2.2665226,15.856985 1.6710363,15.613931 1.3531109,15.404 0.7452302,15.002606 0.24721094,14.259059 0.09460986,13.525049 0.04762725,13.299062 0.02604649,11.541911 0.02667683,7.9937987 0.02767654,2.3665782 0.02719227,2.3755177 0.36739473,1.7041605 0.59071882,1.2634516 1.1484945,0.68921819 1.5700027,0.46606831 2.3401641,0.05833859 2.0673449,0.07492504 7.9902218,0.07574181 c 5.7568192,7.9387e-4 5.6649542,-0.0037857 6.3240242,0.31526435 0.416337,0.20154527 1.033671,0.80503764 1.262308,1.23400574 0.397173,0.7451732 0.386699,0.5721583 0.386699,6.3874881 0,4.547681 -0.01339,5.337628 -0.09581,5.654065 -0.290032,1.113508 -1.249889,2.011328 -2.368797,2.215698 -0.350537,0.06403 -10.5187489,0.08814 -10.910396,0.02587 z"
       id="path5335"
       inkscape:connector-curvature="0" />
    <path
       style="opacity:0;fill:#ff0000;fill-opacity:1;stroke-width:0.0625"
       d="M 2.588253,15.908136 C 2.2665226,15.856985 1.6710363,15.613931 1.3531109,15.404 0.7452302,15.002606 0.24721094,14.259059 0.09460986,13.525049 0.04762725,13.299062 0.02604649,11.541911 0.02667683,7.9937987 0.02767654,2.3665782 0.02719227,2.3755177 0.36739473,1.7041605 0.59071882,1.2634516 1.1484945,0.68921819 1.5700027,0.46606831 2.3401641,0.05833859 2.0673449,0.07492504 7.9902218,0.07574181 c 5.7568192,7.9387e-4 5.6649542,-0.0037857 6.3240242,0.31526435 0.416337,0.20154527 1.033671,0.80503764 1.262308,1.23400574 0.397173,0.7451732 0.386699,0.5721583 0.386699,6.3874881 0,4.547681 -0.01339,5.337628 -0.09581,5.654065 -0.290032,1.113508 -1.249889,2.011328 -2.368797,2.215698 -0.350537,0.06403 -10.5187489,0.08814 -10.910396,0.02587 z"
       id="path5337"
       inkscape:connector-curvature="0" />
    <path
       style="fill:#ff0000;stroke:#000000;stroke-width:1px;stroke-linecap:butt;stroke-linejoin:miter;stroke-opacity:1"
       d="m 1.2750141,15.427533 13.9374999,0.0625 c 0,0 -5.2499999,-0.25 -6.9999999,-7.4999997 -1.75,-7.25000004 0.9375,-1.9375 0.9375,-1.9375 0,0 0.0625,-6.87500004 -1.75,-5.31250004 -1.8125,1.56250004 -5.875,3.56250004 -6.125,14.68749974 z"
       id="path5339"
       inkscape:connector-curvature="0" />
  </g>
</svg>
